<?xml version="1.0" encoding="utf-8"?>
<svg version="1.1" id="Layer_1" x="0px" y="0px" viewBox="0 0 260 300" style="enable-background:new 0 0 260 300;" xmlns="http://www.w3.org/2000/svg">
  <style type="text/css">
	.st0{fill-rule:evenodd;clip-rule:evenodd;fill:#C68C3D;}
	.st1{fill-rule:evenodd;clip-rule:evenodd;fill:#E31D2E;}
	.st2{fill-rule:evenodd;clip-rule:evenodd;fill:#022F5E;}
	.st3{fill-rule:evenodd;clip-rule:evenodd;fill:#FFFFFF;}
	.st4{fill-rule:evenodd;clip-rule:evenodd;fill:#F2F2F2;}
</style>
  <path class="st0" d="M0,60C40.7,60,80.9,1,130,1s89.3,59,130,59l0,0H130H0L0,60z" style="fill: rgb(48, 46, 47);"/>
  <path class="st2" d="M0,120c40.7,0,80.9-59,130-59s89.3,59,130,59l0,0H130H0L0,120z" style="fill: rgb(40, 103, 82);"/>
  <path class="st3" d="M0,180c40.7,0,80.9-59,130-59s89.3,59,130,59l0,0H130H0L0,180z"/>
  <path class="st3" d="M0,300c40.7,0,80.9-59,130-59s89.3,59,130,59l0,0H130H0L0,300z"/>
  <path class="st1" d="M132.8,165.3l5-5c0.4-0.4,1-0.4,1.4,0l4.9,5c0.4,0.4,0.4,1,0,1.4l-4.9,5c-0.4,0.4-1,0.4-1.4,0l-5-5 C132.4,166.4,132.4,165.7,132.8,165.3"/>
  <path class="st1" d="M124.3,156.9l5-5c0.4-0.4,1-0.4,1.4,0l4.9,5c0.4,0.4,0.4,1,0,1.4l-4.9,5c-0.4,0.4-1,0.4-1.4,0l-5-5 C124,157.9,124,157.2,124.3,156.9"/>
  <path class="st1" d="M115.9,165.3l5-5c0.4-0.4,1-0.4,1.4,0l4.9,5c0.4,0.4,0.4,1,0,1.4l-4.9,5c-0.4,0.4-1,0.4-1.4,0l-5-5 C115.5,166.4,115.5,165.7,115.9,165.3"/>
  <path class="st4" d="M0,240c40.7,0,80.9-59,130-59s89.3,59,130,59l0,0H130H0L0,240z"/>
  <path class="st1" d="M132.8,224.8l5-5c0.4-0.4,1-0.4,1.4,0l4.9,5c0.4,0.4,0.4,1,0,1.4l-4.9,5c-0.4,0.4-1,0.4-1.4,0l-5-5 C132.4,225.9,132.4,225.2,132.8,224.8"/>
  <path class="st1" d="M124.3,216.9l5-5c0.4-0.4,1-0.4,1.4,0l4.9,5c0.4,0.4,0.4,1,0,1.4l-4.9,5c-0.4,0.4-1,0.4-1.4,0l-5-5 C124,217.9,124,217.2,124.3,216.9"/>
  <path class="st1" d="M115.9,224.8l5-5c0.4-0.4,1-0.4,1.4,0l4.9,5c0.4,0.4,0.4,1,0,1.4l-4.9,5c-0.4,0.4-1,0.4-1.4,0l-5-5 C115.5,225.9,115.5,225.2,115.9,224.8"/>
</svg>