<svg id="Layer_1" data-name="Layer 1" xmlns="http://www.w3.org/2000/svg" viewBox="0 0 245.11 249.19"><defs><style>.cls-1{fill:none;stroke:#e42331;stroke-miterlimit:10;stroke-width:5px;}</style></defs><path class="cls-1" d="M70.76,88.28a18.55,18.55,0,0,1,1.41,7.39q0,33.6,0,67.2a28.59,28.59,0,0,1-.34,3.69c-.17,1.26-1.3,2.6-.79,3.66,1.55,3.24,2.15,6.94,5.33,9.41A10.52,10.52,0,0,0,92.92,174a11.54,11.54,0,0,0,.37-3.16c0-7.8,0-15.6,0-23.4,0-1.52.83-2.87.86-4.23s-.87-2.58-.86-4c0-6.68.06-13.37,0-20.05,0-1.58,1.13-3,.82-4.38a18.89,18.89,0,0,1-.79-4.24c0-7.92.15-15.84,0-23.75A10.36,10.36,0,0,0,81.68,76.39c-4.4.47-7.43,3.11-9,7.32-.44,1.18-1,2.32-1.38,3.52s-1,1-1.78.69a25.65,25.65,0,0,1-2.46-1.23,9.86,9.86,0,0,0-10.55-.15,10.32,10.32,0,0,0-5.45,9.31c0,5,.15,10-.07,15a76,76,0,0,0-.06,8.27,176.28,176.28,0,0,1,0,20,76.18,76.18,0,0,0,.06,8.28c.22,5,.09,10,0,15a10.8,10.8,0,0,0,11.27,10.71,10.16,10.16,0,0,0,4.75-1.55,7,7,0,0,1,3.52-1.42"/><path class="cls-1" d="M176.31,88.28a18.55,18.55,0,0,0-1.41,7.39q0,33.6,0,67.2a28.59,28.59,0,0,0,.34,3.69c.17,1.26,1.3,2.6.79,3.66-1.55,3.24-2.15,6.94-5.33,9.41A10.52,10.52,0,0,1,154.15,174a11.94,11.94,0,0,1-.38-3.16c0-7.8.32-15.62-.13-23.39a87.28,87.28,0,0,1,.14-9.16,23.83,23.83,0,0,0-.07-5.79,16.84,16.84,0,0,1,0-6.71,19.59,19.59,0,0,0,0-6.83c-.47-2.7-.08-5.28,0-7.94.23-8,0-15.94.1-23.92.05-5,2.83-9.48,9.14-10.65,4.43-.83,9.41,1.94,11.25,7,.48,1.3,1.12,2.56,1.56,3.87.35,1.06,1,1,1.78.69A25.65,25.65,0,0,0,180,86.69a9.86,9.86,0,0,1,10.55-.15A10.34,10.34,0,0,1,196,95.85q.06,7.47,0,15c0,1.52.83,2.87.86,4.22s-.87,2.59-.86,4c0,6.68.06,13.37,0,20.05,0,1.52,1,2.84.82,4.21s-.82,2.61-.81,4.06c0,5,0,10,0,15a10.8,10.8,0,0,1-11.27,10.71A10.16,10.16,0,0,1,180,171.5a7,7,0,0,0-3.52-1.42"/><path class="cls-1" d="M152.82,115H94.33"/><path class="cls-1" d="M152.82,143.17H94.33"/><path class="cls-1" d="M50.09,115c-2,0-4,0-6.07,0a7.16,7.16,0,0,0-7,7q-.09,7,0,14.07a7.16,7.16,0,0,0,7,7c2,.05,4,0,6.07,0"/><path class="cls-1" d="M197.07,143.17c2,0,4,0,6,0a7,7,0,0,0,6.53-4.73c.51-1.36.66-2.85,1.56-4.06"/><path class="cls-1" d="M211,123.64c-.41-1.11-.85-2.22-1.22-3.34-1.19-3.55-3.54-5.28-7.22-5.28h-5.45"/><path class="cls-1" d="M152.82,129.09H124.06"/></svg>