<svg id="Layer_1" data-name="Layer 1" xmlns="http://www.w3.org/2000/svg" viewBox="0 0 245.11 249.19"><defs><style>.cls-1{fill:none;stroke:#e42331;stroke-miterlimit:10;stroke-width:5px;}</style></defs><path class="cls-1" d="M200,148.39c-1.5-1.87-1.84-4.13-2.18-6.39-1.15-7.61-4.83-14-9.85-19.61a41.25,41.25,0,0,0-21.48-13.1,28.09,28.09,0,0,0-6.39-.79c-10,0-20,0-29.92,0-1.39,0-2.59-.92-3.89-.62a13.28,13.28,0,0,1-3.75.58c-2.09-.1-4.25.34-6.22-.66a.75.75,0,0,0-.79,0,8.42,8.42,0,0,1-4.06.61c-9,0-18,.06-27,0-10-.08-18.43,3.61-25.88,10A43.88,43.88,0,0,0,48.5,131.09a35.43,35.43,0,0,0-4.09,13.24,38.67,38.67,0,0,0,8.94,29.44,38.12,38.12,0,0,0,22.57,13.59,27.91,27.91,0,0,0,4.37.64,7.44,7.44,0,0,1,3.58,1.62c.41.28,0,.78.16,1.16"/><path class="cls-1" d="M158.38,189.61c-1.8-1.56-4.08-1.61-6.24-1.93a37.48,37.48,0,0,1-14.65-5.47,28.51,28.51,0,0,0-12.78-4.48c-6.65-.55-13.09.39-18.85,4a41.64,41.64,0,0,1-14.2,5.74,17.74,17.74,0,0,1-3.58.49c-1.51,0-2.68.89-3.89,1.62"/><path class="cls-1" d="M121.28,34.14c.09,3-.08,5.92.13,8.89a8,8,0,0,0,7.51,6.88c4.41-.11,8.83-.12,13.25,0,3.9.11,6.93,1.9,8.05,5.91a7.8,7.8,0,0,1-6.81,10c-2.86.23-5.71.12-8.57.13q-17,0-34,0c-2.79,0-5.19.72-7,3a7.54,7.54,0,0,0-1.2,7.94,7.05,7.05,0,0,0,6.2,4.84c4.2.38,8.41,0,12.62.18a14.63,14.63,0,0,1,4,.34c3.58,1.15,5.77,3.89,5.78,8.22V97"/><path class="cls-1" d="M200.93,148.39a1.14,1.14,0,0,0-1.27.61,10.85,10.85,0,0,0-1.61,4.68,35.86,35.86,0,0,1-3.52,11.85C189,176.83,180,184,167.87,187.16a21.72,21.72,0,0,1-5.29.84,7.38,7.38,0,0,0-3.75,1.52c-.58.37-.15.86-.3,1.26"/><path class="cls-1" d="M158.69,140.28c3.92.35,7.37-3.57,7.63-6.39.45-4.77-1.88-8.19-5.91-9.23a8.07,8.07,0,0,0-9.55,5.64,8,8,0,0,0,5.5,9.8,8.61,8.61,0,0,0,2.17.18"/><path class="cls-1" d="M132,148.54c-.35,3.66,3,7.07,6.08,7.61a8,8,0,1,0-6-9.64,13.41,13.41,0,0,0-.13,1.88"/><path class="cls-1" d="M158.38,156.49a7.64,7.64,0,0,0-7.78,7.8c.09,5.08,3.47,8,7.93,8a7.9,7.9,0,0,0,.16-15.8"/><path class="cls-1" d="M126.58,107.55c0-2.18,0-4.36,0-6.54,0-2.49-.26-2.78-2.65-3.12-.15,0-.35.06-.46,0-2.1-1.22-4.07,0-6.09.3-.91.13-1.17.58-1.26,1.42-.3,2.65,0,5.3-.14,8"/><path class="cls-1" d="M80.91,129.68c-2,.59-2.16.84-2.18,3,0,2.49.08,5,0,7.48s-.33,2.83-2.94,2.94c-2.39.09-4.79-.08-7.17,0-2.93.16-3,.47-3.11,3.1,0,1.5,0,3,0,4.52,0,2.3.62,2.92,3,3s4.68,0,7,0c2.87,0,3.23.4,3.26,3.27,0,2.29,0,4.57,0,6.86s.5,3,2.65,3.23a36.57,36.57,0,0,0,5.92,0c1.5-.11,2-.84,2-2.62,0-2.49,0-5,0-7.48,0-2.87.39-3.23,3.26-3.27,2.39,0,4.79.07,7.17,0,2.61-.11,2.81-.33,3-2.95.08-1.65,0-3.32,0-5,0-2-.65-2.61-2.64-2.64-2.49,0-5,0-7.48,0-2.87,0-3.23-.39-3.26-3.26,0-2.39.06-4.79,0-7.17-.11-2.62-.33-2.82-2.94-3-1.76-.09-3.53,0-5.3,0"/><path class="cls-1" d="M176.77,140.44c-3.13.32-5.53,1.66-6.88,4.67A7.89,7.89,0,0,0,179.11,156a7.41,7.41,0,0,0,5.85-6.1,7.87,7.87,0,0,0-8-9.49"/></svg>