<svg id="Layer_1" data-name="Layer 1" xmlns="http://www.w3.org/2000/svg" viewBox="0 0 245.11 249.19"><defs><style>.cls-1{fill:none;stroke:#e42331;stroke-miterlimit:10;stroke-width:5px;}</style></defs><path class="cls-1" d="M136.83,179.76v-42.2c0-2.64-.73-3.37-3.37-3.37H112c-2.41,0-3.19.78-3.19,3.19q0,21.18,0,42.37"/><path class="cls-1" d="M195.7,97.84v81.92"/><path class="cls-1" d="M130.8,60.79A11.91,11.91,0,0,0,137.53,69c.44.23.62,0,.9-.12a8.89,8.89,0,0,1,4.61-.8q21.9,0,43.79,0a6.74,6.74,0,0,0,1.78-.13c2.41-.61,2.87-1.4,1.75-3.57a18.87,18.87,0,0,0-1.77-2.83,5,5,0,0,0-4.42-2.18q-24.64.09-49.29,0a6.64,6.64,0,0,0-4,1.14c-2.84-.47-4-2.91-5.76-4.68-2-2.09-2.59-2.07-4.65,0-1.21,1.21-2,2.8-3.51,3.76-1.09.69-2.13,1.15-3.39.35a4.79,4.79,0,0,0-2.65-.55q-24.91,0-49.82,0a3.81,3.81,0,0,0-3.19,1.26c-1.55,1.87-3.25,3.67-3,6.38"/><path class="cls-1" d="M50,97.84q0,27,0,53.91a8.79,8.79,0,0,0,.9,4.08"/><path class="cls-1" d="M33.81,180.74c1.94-.28,4,.29,5.84-.64a.65.65,0,0,1,.73,0c1.46.72,3,.55,4.6.55,15,0,30,0,45,0,2.19,0,4.33-.42,6.57,0a39.79,39.79,0,0,0,6.37.07,13.88,13.88,0,0,0,2.66,0,29,29,0,0,1,6.39,0q10.8.27,21.63,0a56.76,56.76,0,0,1,6.39,0,52.31,52.31,0,0,0,8.85,0c2.16-.19,4.26,0,6.39,0q18.61.21,37.24,0a52.41,52.41,0,0,1,6.39,0,63.63,63.63,0,0,0,6.91.06l6,.09"/><path class="cls-1" d="M82.93,101.83a3.08,3.08,0,0,1,2.15.22c1.56.92,3.39.56,5.12.58,2.88,0,3.36.26,3.36,3.37,0,15.13,0,30.26.08,45.39,0,1.89-1.81,3.43-.76,5.31s.62,3.66.67,5.51,0,3.55,0,5.32c0,.12,0,.24,0,.35.06,1.22-.75,2.34-.75,3.37s.78,2.15.75,3.37c0,1.71,0,3.43,0,5.14"/><path class="cls-1" d="M190.91,67.17c3,1.85,4.54,4.75,5.81,7.82.44,1.07.16,2.05-1.37,2.34a13.13,13.13,0,0,1-2.49.3q-21.36,0-42.73,0a4.93,4.93,0,0,0-3,.59,2,2,0,0,1-2.67-.08c-2.79-2.2-5.28-4.7-6.58-8.13a2.33,2.33,0,0,1,0-.7"/><path class="cls-1" d="M42.68,86.14c.4-3.55,2.48-6.19,4.8-8.67a1.73,1.73,0,0,1,2.29-.38,5.43,5.43,0,0,0,2.84.55q21.45,0,42.91,0a4.77,4.77,0,0,1,2.63.41c1.58,1.06,2.8.47,3.91-.59,2.29-2.17,4.63-4.32,5.68-7.44a2.34,2.34,0,0,0,0-.7"/><path class="cls-1" d="M209,95.89c-.38-3.88-2.54-6.72-5.31-9.23-.61-.55-1.06-.24-1.61,0a7.68,7.68,0,0,1-3.19.56q-20.47,0-41,0a4.57,4.57,0,0,0-2.47.38c-2.09,1.29-3.44,0-4.79-1.27a25.29,25.29,0,0,1-3.91-4.78,4.05,4.05,0,0,1-.71-2.66"/><path class="cls-1" d="M36.65,95.89C37,92,39.18,89.17,42,86.66c.6-.55,1-.24,1.61,0a7.68,7.68,0,0,0,3.19.56q20.48,0,40.95,0a4.6,4.6,0,0,1,2.48.38c2.08,1.29,3.44,0,4.79-1.27a26.09,26.09,0,0,0,3.91-4.78,4,4,0,0,0,.7-2.66"/><path class="cls-1" d="M152.61,103c-3.29-4.42-7-8.48-10.46-12.77-4.73-5.9-9.78-11.53-14.38-17.54A37,37,0,0,0,124.41,69c-1.27-1.26-2-1.31-3.16,0-2.21,2.42-4.31,4.92-6.4,7.44q-4.92,5.89-9.75,11.88c-4,4.94-8.27,9.62-12.07,14.71"/><path class="cls-1" d="M152.17,145l-.09,30.5v4.25"/><path class="cls-1" d="M91.79,88.45a6.89,6.89,0,0,1-1.57,3.74,35.9,35.9,0,0,1-4,4.56c-1,.9-2.18,1.76-3.73.61a4.24,4.24,0,0,0-2.45-.42c-9,0-18-.08-26.95.09a44,44,0,0,1-6.39,0,44.75,44.75,0,0,0-6-.05,6.29,6.29,0,0,1-3.38-.7c-.83-.48-1.77-.08-2.65-.19"/><path class="cls-1" d="M162.72,101.83a3.11,3.11,0,0,0-2.16.22c-1.56.92-3.38.56-5.11.58-2.89,0-3.36.26-3.37,3.37q0,12.94,0,25.89c0,1.36.11,2.72.17,4.08"/><path class="cls-1" d="M40,179.76c0-1.83,0-3.66,0-5.49s1-2.64,2.82-3.07c3.47-.84,6.86.44,10.3.09,2.11-.21,4.32.28,6.36-.12,2.21-.44,4.28.05,6.41.06,8.86.05,17.73,0,26.59,0"/><path class="cls-1" d="M114.84,60.61c.06,2.56-1.89,4-3.21,5.83a7.12,7.12,0,0,1-1.94,1.77c-1,.63-2.09,1.2-3.39.25a4.62,4.62,0,0,0-2.63-.42c-7.27,0-14.54,0-21.81,0"/><path class="cls-1" d="M48.88,76.57A6.32,6.32,0,0,1,49,74.79a17.87,17.87,0,0,1,4.81-7.08,1.36,1.36,0,0,1,1.79-.22,6.18,6.18,0,0,0,3.17.58c5.32,0,10.64,0,16,0"/><path class="cls-1" d="M92.32,155.47A11.38,11.38,0,0,1,89,154.24a10.89,10.89,0,0,0-13,2.47,10.44,10.44,0,0,0-2.56,3.37"/><path class="cls-1" d="M178,96.78c-4.26.06-8.51.13-12.77.17a4.33,4.33,0,0,0-2.3.55,2.06,2.06,0,0,1-2.67-.18c-2.75-2.23-5.14-4.75-6.37-8.17a2.34,2.34,0,0,1,0-.7"/><path class="cls-1" d="M65.91,160.08c-2-3.77-7.08-5.92-11.71-4.62a9,9,0,0,1-2,.18c-.5,0-1.13,0-1.39.38-1.37,2-3.42,3.45-4.32,5.82a10.18,10.18,0,0,0-.86,4.09c.06,1.48,0,3,0,4.44"/><path class="cls-1" d="M211,96.07a6.55,6.55,0,0,0-3.55.54,5.18,5.18,0,0,1-2.3.36c-3.07.27-6.2-.61-9.25.63-.72.29-1.67-.64-2.63-.65-2.6,0-5.21-.11-7.81-.17"/><path class="cls-1" d="M196.94,76.74a13.59,13.59,0,0,1,6,9.4"/><path class="cls-1" d="M73.18,159.55c-1.31.18-2.6-.52-3.91,0s-2.89-.21-3.91,1.24c-1.63,2.31-3.42,4.52-3,7.64a15.85,15.85,0,0,1,0,2"/><path class="cls-1" d="M121.05,93.06a10.43,10.43,0,0,0-4.66,2.25,8.24,8.24,0,0,0-2.58,6.08c-.12,2.54,0,5.08,0,7.63,0,2.19,1,3.17,3.18,3.18,3.9,0,7.8,0,11.7,0,2,0,3.18-.85,3.15-2.65,0-3.31.39-6.63-.29-9.94a7.93,7.93,0,0,0-7.82-6.55c-.83,0-1.66,0-2.48,0"/><path class="cls-1" d="M67.68,114.51c-2.39.85-2.66,1.22-2.66,3.73v23.22c0,2.42,1,3.36,3.37,3.37h7.27c2.17,0,3.18-1,3.19-3.19,0-7.92,0-15.84,0-23.76,0-2.39-.94-3.33-3.36-3.36s-5.08,0-7.62,0"/><path class="cls-1" d="M169.46,114.51c-2.4.85-2.66,1.22-2.66,3.73q0,11.61,0,23.22c0,2.42.95,3.36,3.37,3.37h7.27c2.17,0,3.18-1,3.18-3.19q0-11.88,0-23.76c0-2.39-.94-3.33-3.36-3.36s-5.09,0-7.63,0"/></svg>