<svg id="Layer_1" data-name="Layer 1" xmlns="http://www.w3.org/2000/svg" viewBox="0 0 245.11 249.19"><defs><style>.cls-1{fill:none;stroke:#e42331;stroke-miterlimit:10;stroke-width:5px;}</style></defs><path class="cls-1" d="M142,85.3c-1.73.15-3.22-.75-4.81-1.18a59,59,0,0,0-10.31-1.87,44.6,44.6,0,0,0-6.32-.25,52.82,52.82,0,0,0-39.08,19.75A50.58,50.58,0,0,0,71,123.54a54.54,54.54,0,0,0-.72,17.62,50.29,50.29,0,0,0,10.58,25.72,52,52,0,0,0,27.2,18.34,51.27,51.27,0,0,0,15,2,52.75,52.75,0,0,0,46.51-29.25,54.35,54.35,0,0,0,5.17-29.4,54,54,0,0,0-10.28-25.61,49.91,49.91,0,0,0-11.87-11.38A3.38,3.38,0,0,1,151,88"/><path class="cls-1" d="M82.71,140.16c.45,7.23,3.48,13.46,7.77,19.09a38,38,0,0,0,12.76,10.83,40.82,40.82,0,0,0,13.29,4.36,39,39,0,0,0,24.76-4.23A39.76,39.76,0,0,0,161.58,144a36.12,36.12,0,0,0,1.14-11.47,40.32,40.32,0,0,0-13.28-27.74,38.67,38.67,0,0,0-19.11-9.65,41.33,41.33,0,0,0-12-.58A39.42,39.42,0,0,0,97.44,103a40,40,0,0,0-14.77,24.58,11.82,11.82,0,0,0-.37,4.15"/><path class="cls-1" d="M187.69,179.39c-.18,2.94-.19,5.89-.66,8.81-.37,2.26,1.8,6,4.14,7.32,6.49,3.74,12.74-1.84,12.46-7.32-.34-6.65-.44-13.31-.95-19.95-.21-2.65-.11-5.32-.31-8-.32-4.09-.28-8.2-.39-12.3,0-.16.06-.36,0-.49-1.59-3.5.27-7,.06-10.48a56.42,56.42,0,0,1,.28-10.31,11.2,11.2,0,0,0,0-1.16c.22-10.69.28-21.39.73-32.08.21-5,.06-10,.42-15,.11-1.44.12-2.88.17-4.32.07-1.84-.33-3.53-2.17-4.29s-3.34.22-4.62,1.32A23.38,23.38,0,0,0,191,79.82,82.14,82.14,0,0,0,185.2,98.1a36.47,36.47,0,0,0-.84,7c0,2.44,0,4.88,0,7.32a94.65,94.65,0,0,0,2.15,18.45,85.84,85.84,0,0,0,2.56,9.79c.72,2.21,1.39,4.26,1,6.68-.64,3.94-.51,8-1,12-.24,1.86-.19,3.77-.3,5.65a40.23,40.23,0,0,0-.32,5.15"/><path class="cls-1" d="M48.22,70.34C46.5,69.18,45,67.7,42.56,68c-2,.23-4.13,2.16-4.14,4.18,0,8.64-.17,17.29,0,25.93a22.2,22.2,0,0,0,5.12,13.28c3.65,4.61,4.55,9.84,3.93,15.48a4.28,4.28,0,0,0-.13.66c.51,6.07-.6,12.08-.74,18.12-.16,7.21-.64,14.41-1,21.61s-.78,14.18-1,21.28c-.08,2.85,2.11,6.61,6.35,8,2.88.93,6.83-.6,8.83-3.14s2-5.78,1.76-8.82c-.32-4.33-.39-8.65-.54-13"/><path class="cls-1" d="M60.6,161.6c-.26-4.26-.25-8.53-.51-12.8-.21-3.48-.18-7-.39-10.47a11.92,11.92,0,0,0,0-2.32c-.95-3.37,0-6.78-.31-10.15a22.5,22.5,0,0,1,.31-6.65,19.76,19.76,0,0,1,3.85-8.14,23.07,23.07,0,0,0,4.86-13.3c.24-8.2,0-16.4.12-24.6a5.12,5.12,0,0,0-8.3-4l-1.66,1.16"/><path class="cls-1" d="M58.36,102.26c.11-10.36-.22-20.73.16-31.09,0-.27,0-.72-.17-.8-1.43-.7-2.49-2.13-4.15-2.33A6,6,0,0,0,50,69.11a3.79,3.79,0,0,0-1.82,3.73c.08,9.91,0,19.83,0,29.75"/><path class="cls-1" d="M58.69,133.34a70.79,70.79,0,0,1-10.8,0"/></svg>