<svg id="Layer_1" data-name="Layer 1" xmlns="http://www.w3.org/2000/svg" viewBox="0 0 245.11 249.19"><defs><style>.cls-1{fill:none;stroke:#e42331;stroke-miterlimit:10;stroke-width:5px;}</style></defs><path class="cls-1" d="M147.65,149.55c.25,4.27-4.16,9-9.3,9-12.36,0-24.72.1-37.07-.05a15.73,15.73,0,0,0-8.66,2.2c-4.77,2.85-9.64,5.55-14.45,8.34-2.33,1.35-3.28,3.43-2.66,5.65.71,2.53,2.5,3.82,5.32,3.82q54.77,0,109.55,0a5.43,5.43,0,0,1,5.3,4.2,5.23,5.23,0,0,1-3.48,5.63,5.08,5.08,0,0,1-1.66.18c-36.9,0-73.81.06-110.71,0a14.7,14.7,0,0,1-14.14-11.91c-1.5-7.06,2.67-13.41,7.62-16.2,5.21-2.94,10.56-5.65,15.53-9,.61-.41,1.63-.21,2.46-.29"/><path class="cls-1" d="M82.33,79.24a7.51,7.51,0,0,1,3.15-.51q8.89,0,17.79,0c1.25,0,2.4.63,3.5.69s2.12-.69,3.32-.69c6,0,12-.11,17.95.07,2.11.06,4.2.06,6.32,0q9.13-.26,18.28,0c2.12.06,4.2.06,6.32,0,6.09-.17,12.19-.19,18.28,0,2.18.07,4.32,0,6.49,0,6-.15,12-.05,18-.05,3.6,0,3.77.76,3,3.82-1.43,5.66-2.74,11.35-4.39,16.94-.64,2.15-1.16,4.3-1.65,6.49-1.27,5.63-2.67,11.25-4.34,16.78-.67,2.21-1.15,4.42-1.63,6.66-.67,3.14-1.5,6.25-2.48,9.31-1.88,5.87-8,9.92-14.1,9.81-1.67,0-3.39.26-5-.51a1,1,0,0,0-.83-.13c-2.19,1.15-4.55.54-6.82.62-2.61.1-5.21,0-7.82,0a3.15,3.15,0,0,1-1.15,0c-2.22-1-4.24.1-6.33.52-.22.05-.31.34-.67.18-2.73-1.26-5.64-.49-8.47-.67-1.47-.1-2.91-.33-4.34-.52s-2.81.54-4.3.52c-3.49,0-7,0-10.48,0-1.83,0-3.55-.75-5.52-.12-1.6.52-3.51.11-5.28.11h-7.32c-2.39,0-2.49,0-3.13-2.34-1.62-5.85-3.42-11.68-4.52-17.64-.4-2.18-1.1-4.2-1.66-6.29s-1.13-4.09-1.65-6.15a110.34,110.34,0,0,1-2.57-10.82,52.81,52.81,0,0,0-1.57-5.81c-1.56-5.85-3.31-11.69-4.38-17.64-.48-2.66-1.63-5-2.16-7.61A26,26,0,0,0,76,64.11c-.81-1.15-1.53-2.37-3-2.84a1.26,1.26,0,0,1-.66-.49c-2.43-4.38-6.87-5.6-11.16-6.93a18.77,18.77,0,0,0-5.8-.72c-3.33,0-6.66.08-10,0-2.66-.07-5,2.69-5,5s2.38,5.08,5,5c3.32-.1,6.65,0,10,0a16.89,16.89,0,0,1,8,2.29c4.26,2.22,5.85,6.19,6.92,10.36,4.37,16.87,8.56,33.79,12.85,50.69,1.84,7.21,3.78,14.4,5.63,21.61a20.31,20.31,0,0,1,.35,2.82"/><path class="cls-1" d="M106.76,79.74c0,3.6.84,7.1,1.33,10.64.44,3.1,1.33,6.22,1.18,9.3-.11,2.18,1,3.85,1.18,5.82.38,3.45.91,6.88,1.48,10.31.48,2.87.64,5.8,1.21,8.63,1.34,6.56,2,13.2,3.14,19.79a29.67,29.67,0,0,1,.29,3.5"/><path class="cls-1" d="M154.64,102.34c0,7.6-.92,15.17-.84,22.78"/><path class="cls-1" d="M132.53,102.34c-.08,7.61.79,15.18.83,22.78"/><path class="cls-1" d="M198.69,102.51a7.72,7.72,0,0,0-3.16-.51c-4.88,0-9.75,0-14.63,0a9.84,9.84,0,0,1-1.33,0c-2.66-.35-2.68-.31-2.83,2.34-.21,3.53-1,7-1.47,10.48-.39,3.1-1.2,6.15-1.19,9.3,0,1.23-.77,2.22-.91,3.48-.63,5.4-1.61,10.76-2.39,16.14-.19,1.31-.13,2.66-.19,4"/><path class="cls-1" d="M131.2,79.57c.31,5.88.44,11.76,1,17.62.14,1.54,0,3.1,0,4.66"/><path class="cls-1" d="M155.8,79.57c-.11,3.82-.05,7.66-.38,11.47-.31,3.6-.42,7.2-.45,10.81"/><path class="cls-1" d="M180.4,79.57c.1,3.22-.77,6.32-1.17,9.48-.53,4.21-1.5,8.37-1.65,12.63"/><path class="cls-1" d="M133.69,125.62c.17,5.09.19,10.2.56,15.29.17,2.27.21,4.54.27,6.82"/><path class="cls-1" d="M108.92,101.68a29.87,29.87,0,0,1-6.81.32c-3.55,0-7.1,0-10.64,0a7.72,7.72,0,0,0-3.16.51"/><path class="cls-1" d="M153.47,125.45c-5.37-.34-10.75-.12-16.12-.16-6.37,0-12.75,0-19.12,0a21.59,21.59,0,0,0-4.32.34"/><path class="cls-1" d="M112.91,125c-4.75.68-9.53.19-14.29.33-1.46,0-2.94-.16-4.33.5"/><path class="cls-1" d="M174.25,125a27.88,27.88,0,0,0,6.32.33q4.49,0,9,0a7.55,7.55,0,0,1,3.16.5"/><path class="cls-1" d="M94.13,198.43a11.63,11.63,0,0,0-6,3.13c-5.29,5.44-2.58,14.21,4.33,16.37a10.14,10.14,0,0,0,12.49-7,10,10,0,0,0-7.48-12.19,21.33,21.33,0,0,0-3.17-.28"/><path class="cls-1" d="M179.57,198.43a11.67,11.67,0,0,0-6,3.13c-5.29,5.44-2.58,14.21,4.33,16.37a10.13,10.13,0,0,0,12.49-7,10,10,0,0,0-7.48-12.19,21.08,21.08,0,0,0-3.16-.28"/></svg>