<svg id="Layer_1" data-name="Layer 1" xmlns="http://www.w3.org/2000/svg" viewBox="0 0 245.11 249.19"><defs><style>.cls-1{fill:#e42331;}</style></defs><path class="cls-1" d="M133,210.18c-2.95-.33-5.91-.65-8.87-1a63,63,0,0,1-21.2-6.22,8,8,0,0,0-3.3-.8c-10.19-.29-20.38-.66-30.35-3a76,76,0,0,1-11.13-3.68,15.89,15.89,0,0,1-4.85-3.4A6.33,6.33,0,0,1,52,184,148.12,148.12,0,0,1,66.6,162a2.56,2.56,0,0,1,3.64-.73c1.24.89,1.4,2.34.38,3.79-3.13,4.43-6.29,8.84-9.42,13.27-.34.49-.59,1-.78,1.35,3.74.7,7.54,1.11,11.14,2.15,8,2.3,15.28,6.08,22.45,10.17,4.7,2.69,9.38,5.46,14.27,7.78,7.35,3.48,15.32,4.75,23.37,5,7.9.23,15.83-.09,23.74-.2,1.71,0,3,.87,3.12,2.33s-.92,2.58-2.66,2.8-3.29.31-4.94.46ZM91.67,196.82c-.2-.25-.28-.42-.4-.49a100.74,100.74,0,0,0-22.13-10c-3.62-1.05-7.34-1.71-11.12-.79-2,.49-2.47,1.89-.89,3.18a19.54,19.54,0,0,0,5.2,3.12C71.72,195.48,81.63,196.16,91.67,196.82Z"/><path class="cls-1" d="M118.17,50.65c2.19-7.62,8-10,14.93-10.66A23.54,23.54,0,0,1,143,41c5,1.67,8.05,4.91,9,10.25.75,4.34,1.88,8.62,2.92,12.91a8.28,8.28,0,0,0,4.32,5.62c4,2.07,7.85,4.36,12,6a13.93,13.93,0,0,1,8.78,9.44c2.09,7.21,4.34,14.38,6.06,21.67,1.51,6.42-5.48,12.25-11.91,10.27-.57-.18-1.14-.39-2.21-.77,0,3.84.06,7.47,0,11.09q-.14,6.48-.48,13c-.13,2.58-1,3.65-2.74,3.56s-2.45-1.28-2.37-3.84c.27-8.8.51-17.61.81-26.41A3.4,3.4,0,0,0,166,111c-1.55-1.57-2.95-3.31-4.39-5-5,4.71-7.52,11.39-14.84,12,2.94,5,6,9.81,8.68,14.81A314.66,314.66,0,0,1,182,200.25c.51,1.87,0,3.4-1.95,4.23-3.19,1.33-6.54,2.27-9.84,3.32a10.63,10.63,0,0,1-2.45.4,2.39,2.39,0,0,1-2.81-2,2.54,2.54,0,0,1,2.16-3c2.42-.56,4.85-1.1,7.26-1.7.79-.2,1.54-.55,2.49-.89-.65-2.3-1.25-4.52-1.91-6.72-7.07-23.41-16.08-46-28.79-67a145.16,145.16,0,0,0-9.57-13.55c-1.77-2.27-4.17-4-6.16-5.91l-7,7.78-.67-.5c1,.57,2,1.1,3,1.72,3.41,2.2,4.77,5.74,3.56,9.13s-4.61,5.37-8.67,4.82c-2-.27-4-.73-6-1a4.55,4.55,0,0,0-2.35.43c-10.41,5-19.42,11.9-27.68,19.86-2,2-4,4-5.93,6.06-1.33,1.35-2.81,1.53-3.93.46s-1.08-2.49.26-3.93c9.23-10,19.49-18.7,31.5-25.24.23-.13.46-.29.73-.46a46,46,0,0,1-3.58-3.15c-4.54-4.89-3.88-10.38-1.58-16a5.18,5.18,0,0,0,.26-3.72,36.53,36.53,0,0,1-1.42-8.29c-.23-5.36-.13-10.75-.08-16.12,0-1.27-.24-1.9-1.6-2.34-4.06-1.31-7.36-3.61-8.71-7.93A10.66,10.66,0,0,1,103,55.54a2.17,2.17,0,0,0,1.73-.19c3.41-3.51,7.69-4.63,12.38-4.7Zm-12.44,27.9c0,5.83-.17,11.48,0,17.12.24,6.75,2.54,12.39,9.27,15.41a3.62,3.62,0,0,0,3.95-.17,32,32,0,0,0,8.05-8.07c1.22-1.67,2.47-1.89,4.11-.68,3.93,2.89,8,5.64,11.67,8.8,3.5,3,6.05,1.94,8.16-.54,4-4.68,7.85-9.46,11.67-14.28a11.6,11.6,0,0,0,1.81-3.68,1.69,1.69,0,0,0-1.65-2.32,4,4,0,0,0-2.5.86c-3.92,3.43-7.75,7-11.61,10.46-1.85,1.68-2.65,1.74-4.63.28-3.48-2.57-7-5.1-10.41-7.72a14,14,0,0,0-7.14-2.87c-1.87-.2-3.76-.27-5.64-.35s-3.09-.92-3.15-2.43,1.1-2.34,3-2.61a37.41,37.41,0,0,0,6.11-1.34,3.63,3.63,0,0,0,2.71-3.28c.13-3.85,0-7.7,0-11.83C123.17,76.66,115,78.86,105.73,78.55Zm28.9-2.82c.61-.19,1-.29,1.44-.46,5.18-2.26,9.24-6,13.08-10a1.68,1.68,0,0,0,.27-1.32c-.88-4.22-1.9-8.4-2.71-12.63a6.35,6.35,0,0,0-4.27-5,19.62,19.62,0,0,0-14.57.1,6.88,6.88,0,0,0-4.55,5.11c.69.26,1.31.5,1.93.72a14,14,0,0,1,9.39,13.68C134.53,69.06,134.63,72.27,134.63,75.73Zm-29.11-2.29c5.75.39,10.8-.48,15.42-3.26a13.2,13.2,0,0,0,6.51-8.42,2.72,2.72,0,0,0-1.18-3.25c-4-2.89-8.53-3.24-13.16-2.27a8.57,8.57,0,0,0-7,7.35A87.5,87.5,0,0,0,105.52,73.44Zm72.41,23.22.56-.25c-1.45-4-2.88-8-4.35-11.92a5.48,5.48,0,0,0-3.07-3.07c-4.7-2.18-9.37-4.46-14.14-6.75A73.75,73.75,0,0,1,143.6,95.05l2.5,1.88c.5-.44,1-.83,1.4-1.23,3.13-2.82,6.23-5.68,9.39-8.46,3.8-3.35,7.59-3.16,11.32.39C171.41,90.68,174.68,93.65,177.93,96.66Zm-8.58,10.6c.83.77,1.92,1.79,3,2.78a25,25,0,0,0,2,1.69,4.27,4.27,0,0,0,5.45-.58c1.24-1.19,1.72-3.17.75-4.35-1.73-2.1-3.66-4-5.28-5.78ZM152.14,69.7c-2.14,1.89-3.78,3.78-5.81,5-2.61,1.61-3.43,3.65-3.09,6.57a53.44,53.44,0,0,1,0,6.11c3.06-3.41,8-11.74,9.25-15.54C152.72,71.32,152.32,70.57,152.14,69.7Zm-51.47,2.48c0-2.06-.09-4,0-5.9s.44-3.78.67-5.69c-2.42-.8-5.38.86-6.23,3.57C94.05,67.63,96.24,71,100.67,72.18Zm5.39,39c-2.06,4.87-.4,9.08,4.79,11.42l2.29-6.64Zm11.7,6.79c-.73,2.35-1.37,4.39-2.11,6.76,2.3.26,4.19.5,6.09.68a2.27,2.27,0,0,0,2.67-1.69,2.31,2.31,0,0,0-1.24-2.78C121.57,120,119.9,119.17,117.76,118Zm20.45-38c-1,.3-1.88.53-2.76.85a1.4,1.4,0,0,0-.8.64c-.79,1.94-1.51,3.9-2.23,5.82l5.79,3.62Zm30.88,15.58-4.85,7.29c2.95-.38,4.68-1.56,5.75-3.72C170.72,97.65,170.88,96.37,169.09,95.56Z"/></svg>