<svg id="Layer_1" data-name="Layer 1" xmlns="http://www.w3.org/2000/svg" viewBox="0 0 245.11 249.19"><defs><style>.cls-1{fill:#e42527;stroke:#931918;stroke-miterlimit:10;stroke-width:10px;}.cls-2{fill:#fff;}</style></defs><circle class="cls-1" cx="123.46" cy="123.32" r="114.13"/><path class="cls-2" d="M183.18,94.53c-1.31,4.45-2.64,8.89-3.92,13.34q-6.44,22.41-12.83,44.83c-.75,2.6-2.05,3.57-4.75,3.57q-35.42,0-70.82,0a2.54,2.54,0,0,0-2.52,1.52c-2,3.29,0,7,4.34,6.94,23.09-.1,46.18,0,69.27,0,3.39,0,5.49,3.12,4.05,6a4.08,4.08,0,0,1-3.95,2.36c-4.7,0-9.4,0-14.13.08a13.11,13.11,0,0,1,8.11,5.63,12.41,12.41,0,0,1,1.72,9.62c-1.29,6-6.75,10.08-13.28,9.79A12.64,12.64,0,0,1,133,187.24c-.7-5.67,2.3-12,10.29-14.13h-37.9a13,13,0,0,1,8.55,5.74,12.33,12.33,0,0,1,1.62,9.77c-1.4,6-6.92,9.9-13.34,9.54a12.67,12.67,0,0,1-11.42-11c-.68-6.24,3-12.22,10-14.1-2.65,0-5.31-.08-8,0-4.49.17-8.27-1.23-11-4.83-3.13-4.09-3.76-8.63-1.37-13.21a8.74,8.74,0,0,0,.56-7.07q-9.54-32.88-18.82-65.83a1.46,1.46,0,0,0-1.7-1.29c-5.26.06-10.52,0-15.78,0-2.72,0-4.55-1.7-4.55-4.19S42,72.47,44.7,72.47q9.91,0,19.83,0c2.56,0,3.94,1,4.65,3.54,1.26,4.36,2.5,8.73,3.78,13.22h1.81q51.62,0,103.22,0c2.5,0,4.2.83,5.19,3.11Z"/></svg>