<svg id="Layer_1" data-name="Layer 1" xmlns="http://www.w3.org/2000/svg" viewBox="0 0 245.11 249.19"><defs><style>.cls-1{fill:#55348b;stroke:#4a267c;stroke-miterlimit:10;stroke-width:10px;}.cls-2{fill:#fff;}</style></defs><circle class="cls-1" cx="121.27" cy="123.32" r="114.13"/><path class="cls-2" d="M116.65,73.81c7.09,0,14.19.11,21.28,0,18.65-.36,34.71,11.57,41.16,28.09,2,5.09,2.73,10.42,3.46,15.78,1.09,8,2.24,16.1,3.3,24.16a115.23,115.23,0,0,1,1.37,12.66c.19,9.3-6.53,17.58-15.66,19.81a19.91,19.91,0,0,1-22.12-10.38q-6.06-11.55-12-23.21a2.07,2.07,0,0,0-2.16-1.31q-18.67.06-37.37,0a2.06,2.06,0,0,0-2.15,1.32c-4,7.76-7.85,15.54-12,23.2-3.77,7-9.71,10.75-17.73,10.82-9.62.08-18.15-7.31-19.79-16.82-.66-3.82,0-7.54.49-11.27q1.57-12.25,3.34-24.47c1-6.68,1.33-13.5,3.92-19.85C60.38,86.78,71.7,77.25,88.29,74.23a29.91,29.91,0,0,1,5.18-.4C101.19,73.78,108.92,73.81,116.65,73.81ZM91.46,124.27V114.14h10V104h-10v-10H81.26v10h-10v10.11h10v9.94a6.1,6.1,0,0,0,.7.09Zm68.84-8.49a6.65,6.65,0,1,0,.24-13.3,6.65,6.65,0,1,0-.24,13.3Zm-6.73-20.06a6.65,6.65,0,1,0-13.3-.19,6.65,6.65,0,1,0,13.3.19Zm-20.19,20.06a6.65,6.65,0,0,0,.23-13.3,6.65,6.65,0,1,0-.23,13.3Zm6.89,6.77a6.65,6.65,0,1,0,13.3.16,6.65,6.65,0,1,0-13.3-.16Z"/></svg>