<svg id="Layer_1" data-name="Layer 1" xmlns="http://www.w3.org/2000/svg" viewBox="0 0 245.11 249.19"><defs><style>.cls-1{fill:#fbbc20;stroke:#7b5e26;stroke-miterlimit:10;stroke-width:10px;}.cls-2{fill:#fff;}</style></defs><circle class="cls-1" cx="123.58" cy="123.32" r="114.13"/><path class="cls-2" d="M189.11,111.85V158c-1,3.38-2.84,6-6.17,7.57a140.18,140.18,0,0,1-47.3,12.67,133.58,133.58,0,0,1-34.75-1.56,138.18,138.18,0,0,1-44.36-16.07c-6.9-3.92-11-11.81-9.78-19.12a184.82,184.82,0,0,1,8.83-33.75A186.75,186.75,0,0,1,80.3,61.38c3.74-5.12,8.88-7.36,15-6.09,5.69,1.17,11.28,2.88,16.83,4.6A14.54,14.54,0,0,1,122.09,73c.2,3.79-1.2,7.17-2.47,10.58a14,14,0,0,1-13.79,9.3,2.43,2.43,0,0,1-2.65-2.56c0-1.16,0-2.32,0-3.47A2.11,2.11,0,0,0,101,84.82c-1.54,0-2.34.86-2.4,2.72a167.49,167.49,0,0,0,1.61,26.19c.7,5.39.73,10.71-1.57,15.81-.74,1.64-.29,2.92,1.08,3.48s2.46,0,3.22-1.74a29.45,29.45,0,0,0,2.4-11.88,2.62,2.62,0,0,1,2.1-2.83,42,42,0,0,1,21.67-.9A48.71,48.71,0,0,1,150.89,127c1.3,1.14,2.63,1.15,3.58.13s.88-2.47-.5-3.62a52.36,52.36,0,0,0-5.7-4.42c-3.1-1.92-6.37-3.57-9.59-5.29-1.78-1-2.15-2.59-.81-4.09.31-.34.63-.68,1-1,11-10.21,23.71-12.8,37.77-7.6C182,103.11,187.38,105.44,189.11,111.85Z"/></svg>