<svg id="Layer_1" data-name="Layer 1" xmlns="http://www.w3.org/2000/svg" viewBox="0 0 245.11 249.19"><defs><style>.cls-1{fill:#f08226;stroke:#ad561a;stroke-miterlimit:10;stroke-width:10px;}.cls-2{fill:#fff;}</style></defs><circle class="cls-1" cx="122.55" cy="123.32" r="114.13"/><path class="cls-2" d="M97.74,80.41a48.75,48.75,0,0,0,4,5.5c1,1.07,2.84,1.36,3.89,2.41s1.38,2.8,2.4,3.91a15.22,15.22,0,0,0,9,4.5,6.54,6.54,0,0,1,2.33.67c-.31.1-.61.22-.93.29a20.81,20.81,0,0,0-12.12,7.4,9.46,9.46,0,0,0-1.75,4.06c-.41,2.42.83,4.11,3.24,4.28a14.66,14.66,0,0,1,8.49,3.77,12.32,12.32,0,0,0,11.08,2.34c0,1.77-.11,3.46,0,5.14a11.44,11.44,0,0,0,3.12,6.93,11.54,11.54,0,0,1,3.11,7.23c.24,3.18,2.52,4.57,5.61,3.57a12,12,0,0,0,5.58-4.22,21.68,21.68,0,0,0,4.64-9.79,8.63,8.63,0,0,1,.4-1.05,42.43,42.43,0,0,0,.89,4.6c1.3,4.11,3.18,7.79,7.64,9.33a1.12,1.12,0,0,1,.66.6c1,3.56,3.81,5.31,6.87,6.79l1.32.68c-3.9,2.49-7.45,5-11.2,7.11-8.13,4.63-17.06,6.24-26.31,6.41-5.53.11-11.08.13-16.61.37a41.33,41.33,0,0,0-13.76,3,2,2,0,0,1-2.63-.48c-5.13-5.22-10.32-10.38-15.51-15.54-.62-.61-1-1.1-.57-2.06,2.61-6.19,3.37-12.73,3.55-19.37.14-5.38.1-10.76.33-16.13.43-10.21,4-19.38,9.75-27.72C95.48,83.37,96.7,81.81,97.74,80.41Zm19.39,51.32c-.42-.49-.74-1.22-1.14-1.26a2.69,2.69,0,0,0-2,.54c-6,5.92-12,11.9-17.93,17.87-.77.77-1.18,1.61-.27,2.5s1.73.49,2.5-.29q9-9,17.89-17.91A8.75,8.75,0,0,0,117.13,131.73Zm-5.38,19.58h-2.58c-1.06,0-1.85.48-1.88,1.55s.72,1.63,1.79,1.65a39,39,0,0,0,22.82-6c1-.67,1.69-1.51.93-2.63s-1.76-.6-2.68,0A33.59,33.59,0,0,1,111.75,151.31Zm-19.08-15.5c0,.53,0,1.07,0,1.61,0,1.21.15,2.48,1.62,2.49s1.59-1.23,1.63-2.45a70.35,70.35,0,0,1,.48-7.55,31.43,31.43,0,0,1,5-13c.64-1,1-1.94-.14-2.64s-1.87-.08-2.52.92A38.76,38.76,0,0,0,92.67,135.81Z"/><path class="cls-2" d="M159.45,93.37c6.55.3,12.4,1.74,17.48,5.37a16.52,16.52,0,0,1,3.63,4.38c.74,1.11.23,2.2-1,2.82a18.81,18.81,0,0,1-2.79,1.24,18.87,18.87,0,0,0-10.31,8.33A18,18,0,0,1,155.17,124,19.24,19.24,0,0,1,138,119.87c-3.22-2.6-4.12-6.14-2.37-10.19C139.32,101,146,95.79,155.16,93.84A40.2,40.2,0,0,1,159.45,93.37Z"/><path class="cls-2" d="M53.08,162.25l14.85-6.37c3-1.29,6-2.54,9-3.87a1.47,1.47,0,0,1,2,.35c1.15,1.2,2.42,2.28,3.83,3.58l-5.67,3.41q-4.14,2.49-8.3,5c-1,.63-2.25,1.27-1.36,2.72s1.93.63,2.93,0l14.28-8.59,4.07,4.15-8.14,13.56c-.33.56-.87,1.09-.93,1.67a2.32,2.32,0,0,0,.58,1.89c.43.28,1.36,0,2-.28.37-.16.56-.76.81-1.17l7.19-12c.3-.5.63-1,1.12-1.73,1.38,1.47,2.65,2.78,3.85,4.15a1.23,1.23,0,0,1,.18,1.1q-5.09,12-10.25,24s-.08.07-.39.29a38.08,38.08,0,0,1-4-1.81c-8.2-4.78-14.79-11.4-20.78-18.64a67.86,67.86,0,0,1-5.09-7.44A27.75,27.75,0,0,1,53.08,162.25Z"/><path class="cls-2" d="M131.32,112c-2-.44-3.54-1.94-4.81-3.71-6.72-9.3-4.6-21.17,5-27.47,4.08-2.69,7.25-6,8.68-10.81a2.81,2.81,0,0,1,.1-.31c1.58-4,3.43-4.4,6.62-1.36,2.81,2.68,4.21,6.17,5.37,9.77a31.88,31.88,0,0,1,1.48,11.44c-.05,1.06-.45,1.42-1.45,1.7a29.75,29.75,0,0,0-18.2,14.17A53.36,53.36,0,0,0,131.32,112Z"/><path class="cls-2" d="M121.49,67.57c-.26,7.71-3.83,13.05-10.15,16.57-3.85,2.14-6.86,1.15-9.14-2.62a12.88,12.88,0,0,1,4-17.95,15.47,15.47,0,0,0,6.56-8.26c.81-2.47,1.9-2.68,3.8-.85,2.68,2.56,3.73,5.95,4.5,9.44C121.3,65.2,121.36,66.55,121.49,67.57Z"/><path class="cls-2" d="M179.47,125.76a22.54,22.54,0,0,1,10.6,2.88,10.73,10.73,0,0,1,2,1.38c2.66,2.34,2.47,3.58-.82,4.72a14.58,14.58,0,0,0-7.56,6.22,12.49,12.49,0,0,1-9.32,6,13,13,0,0,1-10.68-3.5c-2.1-1.93-2-4.37-1-6.84C165.28,130.24,172.26,125.75,179.47,125.76Z"/><path class="cls-2" d="M157.06,90.25c-.21-3-.4-6-.62-9.16a32.27,32.27,0,0,1,3.79-.36c6.69.08,13,1.68,18.38,5.77a12.85,12.85,0,0,1,3,3.86c.67,1.14.26,2.26-1,3-2,1.09-3.71,1.68-6.09.47a33.24,33.24,0,0,0-16.16-3.54C157.91,90.26,157.45,90.25,157.06,90.25Z"/><path class="cls-2" d="M158.88,138c-3.24-1.46-5.75-6.34-5.39-10.42A20.73,20.73,0,0,0,165.13,122a61,61,0,0,0,4.11-4.93l3.44-4.18.7.13c.42,2.88.86,5.76,1.27,8.64.15,1.1-.41,1.56-1.46,1.89a21.54,21.54,0,0,0-13.44,11.88A26.77,26.77,0,0,0,158.88,138Z"/><path class="cls-2" d="M119.64,93.72c-4.19.32-9-2.19-10.42-5.41a19,19,0,0,0,11-7.7,37.91,37.91,0,0,0,3.45-6.67c.4-.94.81-1.51,1.81-1.38,2.89.39,5.78.84,8.67,1.26l.17.72a45,45,0,0,1-4.19,3.39A22,22,0,0,0,119.64,93.72Z"/><path class="cls-2" d="M119.84,100.87c1.7,5.95,4,11.19,9.73,14-1.86,1.89-5.62,2.58-8.62,1.36a13.84,13.84,0,0,1-3.79-2.36,12.94,12.94,0,0,0-7.86-3.29c-1.71-.11-2.2-.76-1.21-2.11a24.21,24.21,0,0,1,4.66-4.77A13.25,13.25,0,0,1,119.84,100.87Z"/><path class="cls-2" d="M146.57,127.45c-.53,1.54-.94,3-1.54,4.41a15.62,15.62,0,0,1-5.5,7c-2.08,1.42-2.78,1-2.94-1.45a12.72,12.72,0,0,0-3.51-7.6c-3-3.46-3.49-7.73-1.43-11.36.15-.27.36-.5.61-.85C135.2,123.41,140.39,125.86,146.57,127.45Z"/><path class="cls-2" d="M155.6,77.78c-.88-2.11-1.75-4.18-2.61-6.25-.41-1,.84-4.67,1.95-5.5a2.69,2.69,0,0,1,3.54.47,22.61,22.61,0,0,1,4.12,4.63,56,56,0,0,1,3,6.65Z"/><path class="cls-2" d="M130.36,69.71l-5.42-.32c-.42-2.64-.73-5.28-1.28-7.87A16.5,16.5,0,0,0,122,56.87c-.89-1.55-.2-2.68.52-3.83a1.53,1.53,0,0,1,1.47-.37,6.29,6.29,0,0,1,2.3,1.68C129.68,58.87,130.8,64,130.36,69.71Z"/><path class="cls-2" d="M177.81,122.5l-.3-5.7c5.89-.36,11.29.7,15.89,4.61a1.79,1.79,0,0,1,.6.75c.22.77.7,2.07.44,2.26-.9.63-2.37,1.5-3.1,1.16A32.53,32.53,0,0,0,177.81,122.5Z"/><path class="cls-2" d="M174.53,80.35c-1.63-.5-3.18-.94-4.68-1.48a2,2,0,0,1-1.06-1c-.64-1.75-1.17-3.53-1.75-5.3,2.48-1.64,5.68-1.59,7.4.13S176.21,77.63,174.53,80.35Z"/><path class="cls-2" d="M138.15,66.38l-2,5.11c-.42-.13-.71-.25-1-.31-1.33-.29-1.93-.86-1.58-2.42a21.32,21.32,0,0,0,.07-4.42Z"/><path class="cls-2" d="M175.62,111.05l5.13-2,2,4.35c-2,.12-3.7.28-5.44.31a1.42,1.42,0,0,1-1-.7A12.27,12.27,0,0,1,175.62,111.05Z"/></svg>