<svg id="Layer_1" data-name="Layer 1" xmlns="http://www.w3.org/2000/svg" viewBox="0 0 245.11 249.19"><defs><style>.cls-1{fill:#378ecd;stroke:#233a76;stroke-miterlimit:10;stroke-width:10px;}.cls-2{fill:#fff;}</style></defs><circle class="cls-1" cx="122.91" cy="123.32" r="114.13"/><path class="cls-2" d="M59.55,118.89v-3a13.12,13.12,0,0,1,3.83-4.91Q91.45,85.4,119.5,59.82q5.15-4.69,10.36,0,18,16.41,36,32.8,10.8,9.86,21.6,19.71a6.38,6.38,0,0,1,1.87,7.39c-1.06,2.9-3.34,4.25-6.36,4.41-1,0-1.95,0-2.93,0h-6.3v1.65q0,25.56,0,51.12c0,2.84-1.42,4.34-4.27,4.34q-15.58,0-31.16,0c-2.84,0-4.24-1.52-4.24-4.37q0-15.19,0-30.39v-1.36H115.24v1.47c0,10-.06,20,.05,30,0,2.67-1.44,4.71-4.66,4.68q-15.19-.11-30.39,0c-3.13,0-4.73-1.82-4.72-4.75.09-17,0-33.91,0-50.86v-1.54c-3.11,0-6,0-9,0a6.75,6.75,0,0,1-6-3.16A21,21,0,0,1,59.55,118.89Z"/><path class="cls-2" d="M176.58,92.06,147.1,65.26c.59-.06.93-.12,1.27-.13,7.88,0,15.77,0,23.65,0,3.16,0,4.55,1.41,4.55,4.58C176.58,77.05,176.58,84.38,176.58,92.06Z"/></svg>