<svg id="Layer_1" data-name="Layer 1" xmlns="http://www.w3.org/2000/svg" viewBox="0 0 245.11 249.19"><defs><style>.cls-1{fill:#5cb243;stroke:#204f24;stroke-miterlimit:10;stroke-width:10px;}.cls-2{fill:#fff;}</style></defs><circle class="cls-1" cx="122.37" cy="123.32" r="114.13"/><path class="cls-2" d="M53,97c.18-2.83.4-5.65.54-8.48.22-4.3.37-8.61.58-12.92a3.42,3.42,0,1,1,6.79.4c-.17,4.49-.43,9-.64,13.47-.13,2.69-.24,5.39-.37,8.17h2.72V96.13c0-6.79,0-13.58,0-20.37,0-2.61,1.82-4.13,4.17-3.56a3,3,0,0,1,2.41,2.52,11.65,11.65,0,0,1,.15,2q0,9.57,0,19.13v1.7H72c0-.68,0-1.34,0-2q-.43-9.69-.9-19.38c-.09-2.09.77-3.55,2.39-4a3.15,3.15,0,0,1,3.85,1.56,5.13,5.13,0,0,1,.47,2c.4,8.3.84,16.59,1.12,24.89.17,4.89-2.07,8.64-6.15,11.26a2,2,0,0,0-1.06,2q.3,26.37.55,52.72a6.06,6.06,0,0,1-4.9,6.4,6.2,6.2,0,0,1-7.65-6.38c0-5.23.14-10.46.19-15.69.11-12.26.2-24.51.34-36.76a2.39,2.39,0,0,0-1.27-2.4,12.62,12.62,0,0,1-5.63-7.84A9.07,9.07,0,0,0,53,103Zm8,7.49a6,6,0,0,0,5.35,2.61,5.4,5.4,0,0,0,4.58-2.61Z"/><path class="cls-2" d="M124.53,166.35a46.94,46.94,0,1,1,47-46.9A46.88,46.88,0,0,1,124.53,166.35Zm.1-87.12A40.17,40.17,0,1,0,164.8,119.5,40.2,40.2,0,0,0,124.63,79.23Z"/><path class="cls-2" d="M175.28,123.11q0-21.19,0-42.38c0-3.9,1.86-6.79,5.09-8,4.81-1.83,9.72,1,10.74,6.28,1.74,9,3.16,18.13,2.85,27.4a97.1,97.1,0,0,1-2.68,20.93,12.41,12.41,0,0,0-.34,2.85q0,17.82,0,35.64c0,3.35-1.66,5.89-4.45,6.89-3.38,1.21-7.58.34-9.54-2a7.69,7.69,0,0,1-1.67-5.24Q175.29,144.3,175.28,123.11Zm9.48,2.37a90.42,90.42,0,0,0,2.34-17.36,98.64,98.64,0,0,0-1.4-21c-.38-2.3-.85-4.59-1.26-6.89-.14-.74-.42-1.34-1.31-1.28s-1,.74-1,1.49c0,.13,0,.27,0,.41v43.22c0,.44,0,.88.08,1.36Z"/><path class="cls-2" d="M124.65,152.32a32.92,32.92,0,1,0-33-32.91A33,33,0,0,0,124.65,152.32Z"/><path class="cls-2" d="M124.65,152.32a32.92,32.92,0,1,1,32.95-32.85A32.8,32.8,0,0,1,124.65,152.32Z"/></svg>